<?xml version="1.0" encoding="UTF-8"?>
<svg width="32px" height="32px" viewBox="0 0 32 32" version="1.1" xmlns="http://www.w3.org/2000/svg" xmlns:xlink="http://www.w3.org/1999/xlink">
    <!-- Generator: Sketch 53 (72520) - https://sketchapp.com -->
    <title>Slice 1</title>
    <desc>Created with Sketch.</desc>
    <g id="Page-1" stroke="none" stroke-width="1" fill="none" fill-rule="evenodd">
        <g id="location" fill="#000000" fill-rule="nonzero">
            <path d="M10.498375,21.9982857 C11.81625,23.8859048 13.132,25.5741587 14.004,26.6615238 C14.1309375,26.819746 14.249875,26.9665397 14.3650625,27.1079365 L11.733625,27.1079365 C11.4390625,27.1079365 11.2003125,27.3504762 11.2003125,27.6497143 C11.2003125,27.9489524 11.4390625,28.1914921 11.733625,28.1914921 L20.266875,28.1914921 C20.5614375,28.1914921 20.8001875,27.9489524 20.8001875,27.6497143 C20.8001875,27.3504762 20.5614375,27.1079365 20.266875,27.1079365 L17.6354375,27.1079365 C17.750625,26.9665397 17.8695625,26.8196825 17.9970625,26.6615238 C18.8685,25.5779048 20.18375,23.8859048 21.502125,21.9982857 C22.8101875,20.1630476 23.9875625,18.2353016 25.0253125,16.2297778 C26.114375,14.0571429 26.6669375,12.2535238 26.6669375,10.8686984 C26.6705625,7.9911746 25.5465625,5.23053968 23.5431875,3.19625397 C23.409375,3.05530159 23.211125,2.99866667 23.024625,3.04812698 C22.838125,3.0975873 22.692375,3.24539683 22.6434375,3.43479365 C22.5945,3.62419048 22.6499375,3.82565079 22.7885,3.96177778 C24.59175,5.79314286 25.6034375,8.27828571 25.60025,10.8686349 C25.60025,12.0812063 25.0871875,13.7195556 24.0749375,15.7377778 C23.060625,17.6968254 21.9099375,19.579873 20.63175,21.3725079 C19.3315,23.235746 18.03175,24.9050159 17.1704375,25.9777778 C16.8840625,26.3342857 16.6264375,26.6495873 16.4066875,26.9161905 C16.304125,27.0351746 16.156,27.1033651 16.0003125,27.1033651 C15.844625,27.1033651 15.6965,27.0351111 15.5939375,26.9161905 C15.3741875,26.6496508 15.116625,26.3342857 14.8301875,25.9777778 C13.968875,24.9055873 12.669125,23.236254 11.368875,21.3725079 C10.0906875,19.579873 8.94,17.6968254 7.9256875,15.7377778 C6.912375,13.7195556 6.400375,12.0812063 6.400375,10.8686349 C6.4000625,6.94425397 8.7103125,3.40025397 12.2670625,1.8688254 C14.6569375,0.850793651 17.3491875,0.850793651 19.7390625,1.8688254 C19.9145625,1.94438095 20.116375,1.9191746 20.2685625,1.80253968 C20.42075,1.68596825 20.500125,1.49574603 20.4768125,1.30355556 C20.4535,1.11136508 20.3310625,0.946412698 20.1555625,0.870857143 C14.7244375,-1.45625397 8.4645625,1.1287619 6.172125,6.64533333 C5.6161875,7.9815873 5.3310625,9.41796825 5.33375,10.8686349 C5.33375,12.2534603 5.8863125,14.0571429 6.975375,16.2324444 C8.013,18.2370794 9.1904375,20.1639365 10.498375,21.9982857 Z" id="Path"></path>
            <path d="M16.0001875,5.97784127 C16.29475,5.97784127 16.5335,5.73530159 16.5335,5.43606349 C16.5335,5.1368254 16.29475,4.89428571 16.0001875,4.89428571 C13.4558125,4.89422222 11.2656875,6.72012698 10.76925,9.2552381 C10.2728125,11.7903492 11.608375,14.3286349 13.9590625,15.3178413 C16.30975,16.3070476 19.0209375,15.4715556 20.4345625,13.3224127 C21.8481875,11.1732698 21.5705,8.30895238 19.771375,6.48120635 C19.6374375,6.34038095 19.4391875,6.28387302 19.2526875,6.33346032 C19.06625,6.38304762 18.920625,6.53098413 18.8718125,6.72038095 C18.823,6.90984127 18.878625,7.1112381 19.01725,7.24730159 C20.456625,8.70946032 20.6788125,11.0008254 19.548,12.7201905 C18.4171875,14.4395556 16.24825,15.108 14.3676875,14.3167619 C12.487125,13.5255238 11.418625,11.4949206 11.815625,9.46679365 C12.212625,7.43866667 13.9646875,5.97790476 16.0001875,5.97784127 Z" id="Path"></path>
            <path d="M31.799125,29.5845714 L28.519125,23.6247619 C28.2225625,23.0952381 27.667625,22.7697778 27.0679375,22.7735873 L23.266875,22.7735873 C22.9723125,22.7735873 22.7335625,23.016127 22.7335625,23.3153651 C22.7335625,23.6146032 22.9723125,23.8571429 23.266875,23.8571429 L27.0679375,23.8571429 C27.2814375,23.8529524 27.480625,23.9660317 27.589,24.1529524 L30.8679375,30.1127619 C30.95725,30.2678095 30.955375,30.460127 30.863125,30.6133968 C30.7541875,30.796254 30.5571875,30.9057778 30.346875,30.9005714 L1.6535625,30.9005714 C1.4434375,30.9056508 1.2466875,30.7960635 1.1378125,30.6133968 C1.0455625,30.460127 1.04375,30.2678095 1.133,30.1127619 L4.4119375,24.1529524 C4.520125,23.9660952 4.719125,23.8530159 4.9324375,23.8571429 L8.7335,23.8571429 C9.0280625,23.8571429 9.2668125,23.6146032 9.2668125,23.3153651 C9.2668125,23.016127 9.0280625,22.7735873 8.7335,22.7735873 L4.9325,22.7735873 C4.3325,22.7695873 3.777125,23.0950476 3.48025,23.6247619 L0.20075,29.5845714 C-0.0726875,30.0752381 -0.066375,30.6771429 0.2173125,31.1617778 C0.5161875,31.6778413 1.06425,31.9916825 1.6535625,31.984254 L30.346875,31.984254 C30.936,31.9914921 31.483875,31.6777143 31.782625,31.1617778 C32.0663125,30.6770794 32.072625,30.0752381 31.799125,29.5845714 Z" id="Path"></path>
            <path d="M26.1335625,25.4826032 L24.00025,25.4826032 C23.8949375,25.4827937 23.792,25.5144127 23.70425,25.5736508 L22.10425,26.6572698 C21.8591875,26.8233651 21.7930625,27.1598095 21.9565,27.4087619 C22.12,27.6577143 22.4511875,27.7248889 22.69625,27.5588571 L24.16025,26.5662857 L26.1335625,26.5662857 C26.428125,26.5662857 26.666875,26.3236825 26.666875,26.0245079 C26.666875,25.7251429 26.428125,25.4826032 26.1335625,25.4826032 Z" id="Path"></path>
            <path d="M22.9335625,29.2751746 C22.9335625,29.5744127 23.1723125,29.8169524 23.466875,29.8169524 L27.7335625,29.8169524 C28.028125,29.8169524 28.266875,29.5744127 28.266875,29.2751746 C28.266875,28.9759365 28.028125,28.7333968 27.7335625,28.7333968 L23.466875,28.7333968 C23.1723125,28.7333968 22.9335625,28.9759365 22.9335625,29.2751746 Z" id="Path"></path>
            <path d="M9.6001875,27.6497778 C9.8353125,27.6500952 10.042875,27.4939048 10.1111875,27.2653333 C10.1795,27.0367619 10.092375,26.7897143 9.89675,26.6572063 L8.29675,25.5735873 C8.208875,25.5142857 8.1056875,25.4826032 8.0001875,25.4825397 L5.866875,25.4825397 C5.5723125,25.4825397 5.3335625,25.7251429 5.3335625,26.0243175 C5.3335625,26.3235556 5.572375,26.5660952 5.866875,26.5660952 L7.8401875,26.5660952 L9.3058125,27.5586667 C9.393,27.6178413 9.4954375,27.6495238 9.6001875,27.6497778 Z" id="Path"></path>
            <path d="M4.266875,28.7333968 C3.9723125,28.7333968 3.7335625,28.9759365 3.7335625,29.2751746 C3.7335625,29.5744127 3.9723125,29.8169524 4.266875,29.8169524 L8.5335625,29.8169524 C8.828125,29.8169524 9.066875,29.5744127 9.066875,29.2751746 C9.066875,28.9759365 8.828125,28.7333968 8.5335625,28.7333968 L4.266875,28.7333968 Z" id="Path"></path>
        </g>
    </g>
</svg>