<?xml version="1.0" encoding="UTF-8"?>
<svg width="32px" height="32px" viewBox="0 0 32 32" version="1.1" xmlns="http://www.w3.org/2000/svg" xmlns:xlink="http://www.w3.org/1999/xlink">
    <!-- Generator: Sketch 53 (72520) - https://sketchapp.com -->
    <title>Slice 1</title>
    <desc>Created with Sketch.</desc>
    <g id="Page-1" stroke="none" stroke-width="1" fill="none" fill-rule="evenodd">
        <g id="call" fill="#000000" fill-rule="nonzero">
            <path d="M31.160306,24.6868667 L29.9173024,23.8586822 C32.7205751,18.9278221 32.6892672,12.8779255 29.8351271,7.97637562 C26.980987,3.07482573 21.7350758,0.0616890104 16.0633527,0.0663761398 C15.7688338,0.0663761398 15.5301191,0.305107261 15.5301191,0.599646469 C15.5301191,0.894185677 15.7688338,1.1329168 16.0633527,1.1329168 C21.3411966,1.12897961 26.2248489,3.92582094 28.8925791,8.48021078 C31.5602468,13.0345381 31.6113642,18.6624681 29.0268092,23.2645416 L24.6813273,20.3671458 C23.859324,19.8236262 22.757737,20.0025496 22.1499519,20.7783008 L20.2654183,23.2042339 C20.0227667,23.5237711 19.5822694,23.6164513 19.2314464,23.4218417 L18.872562,23.2239823 C17.682863,22.5754711 16.2025821,21.7680975 13.220086,18.7843334 C10.2375899,15.8005694 9.4286471,14.3190615 8.78018056,13.131468 L8.58339719,12.7725588 C8.38586392,12.4218366 8.47685046,11.9791841 8.79667812,11.7347659 L11.2208194,9.84854007 C11.9964546,9.24077563 12.1756156,8.13923774 11.6325084,7.31699027 L7.31314767,0.839627491 C6.75648006,0.00238120044 5.63977032,-0.248973923 4.77808535,0.269047613 L2.06967367,1.89610645 C1.21867461,2.39644188 0.594329512,3.2067528 0.327556493,4.15724014 C-0.647736671,7.7110841 0.0859672461,13.8444741 9.12038022,22.880572 C13.0557978,26.8162608 16.4392971,29.1733869 19.3001862,30.5066564 C14.8968378,31.5016403 10.2800836,30.4365995 6.75741742,27.6133227 C3.23475125,24.7899835 1.1897414,20.515759 1.20155215,16.0011785 C1.20155215,15.7066393 0.962837476,15.4679082 0.668318562,15.4679082 C0.373799649,15.4679082 0.135084977,15.7066393 0.135084977,16.0011785 C0.143333756,24.796233 7.26896671,31.9247318 16.0634152,31.9359184 C17.7109839,31.9364809 19.3484915,31.6784388 20.9160095,31.1711664 C22.3302378,31.6994371 23.8250165,31.9797899 25.3345431,31.9999134 C26.1808554,32.0035381 27.0238556,31.8934218 27.8408597,31.6725017 C28.791469,31.4060228 29.6018491,30.7815722 30.1018376,29.9302645 L31.7304091,27.2232911 C32.2491448,26.3612968 31.997932,25.2438226 31.160306,24.6868667 Z M30.8136698,26.674397 L29.1888477,29.3829953 C28.8295884,29.9985091 28.2459248,30.4509108 27.5602762,30.6452705 C26.0090683,31.0719242 23.9080043,31.1252325 21.2081538,30.151997 C21.1653476,30.1279989 21.1193545,30.1100628 21.0716115,30.0986887 C18.085366,28.9899639 14.3776647,26.6269632 9.8732688,22.1238818 C1.20261449,13.4530675 0.455537552,7.72070834 1.35621676,4.43940532 C1.55093794,3.75395953 2.003246,3.17031818 2.61840496,2.81072162 L5.32681664,1.18578762 C5.70069881,0.960805409 6.18537708,1.06985928 6.42690383,1.43320555 L8.77324409,4.95611446 L10.7425776,7.91000587 C10.9784177,8.26666517 10.9009292,8.74468986 10.564479,9.00860649 L8.13977534,10.8948323 C7.40188454,11.4591002 7.19116573,12.480082 7.64547349,13.2903929 L7.8380075,13.6402402 C8.51953164,14.8902664 9.36684374,16.4453309 12.4602609,19.5384613 C15.5536781,22.6315292 17.1081356,23.4789622 18.3575132,24.1604708 L18.7078363,24.353518 C19.5180289,24.8077946 20.5390028,24.5971238 21.1032318,23.8591821 L22.9893277,21.4343114 C23.2532886,21.0980255 23.7310929,21.0205941 24.0878526,21.2562005 L30.5642067,25.5758589 C30.9275904,25.8164648 31.0375116,26.3003641 30.8136698,26.674397 Z" id="Shape"></path>
        </g>
    </g>
</svg>