<?xml version="1.0" encoding="UTF-8"?>
<svg width="32px" height="32px" viewBox="0 0 32 32" version="1.1" xmlns="http://www.w3.org/2000/svg" xmlns:xlink="http://www.w3.org/1999/xlink">
    <!-- Generator: Sketch 53 (72520) - https://sketchapp.com -->
    <title>Slice 1</title>
    <desc>Created with Sketch.</desc>
    <g id="Page-1" stroke="none" stroke-width="1" fill="none" fill-rule="evenodd">
        <g id="email" fill="#000000" fill-rule="nonzero">
            <path d="M31.992,12.2328125 C31.9886875,12.1960625 31.981375,12.15975 31.970125,12.1245625 C31.9628125,12.093125 31.952625,12.0624375 31.93975,12.0328125 C31.9248125,12.003875 31.9069375,11.9765 31.8864375,11.9511875 C31.865875,11.921125 31.8420625,11.8934375 31.8155,11.8685 C31.8069375,11.8610625 31.80325,11.850875 31.7941875,11.8434375 L26.665125,7.86 L26.665125,3.7315 C26.665125,2.847875 25.94875,2.1315 25.065125,2.1315 L19.285375,2.1315 L16.9711875,0.3346875 C16.3995,-0.1111875 15.5978125,-0.1111875 15.026125,0.3346875 L12.7114375,2.1315 L6.9316875,2.1315 C6.0480625,2.1315 5.3316875,2.8478125 5.3316875,3.7315 L5.3316875,7.8600625 L0.20425,11.8435 C0.1951875,11.851 0.1914375,11.861125 0.1829375,11.8685625 C0.156375,11.8934375 0.1325625,11.9211875 0.112,11.95125 C0.0915,11.9765625 0.073625,12.003875 0.0586875,12.032875 C0.04575,12.0624375 0.035625,12.0931875 0.0283125,12.124625 C0.0171875,12.1593125 0.009875,12.1950625 0.0064375,12.2313125 C0.0064375,12.2425 6.25e-05,12.252125 6.25e-05,12.2633125 L6.25e-05,30.398125 C0.0008125,30.737375 0.1105625,31.067375 0.313125,31.3394375 C0.3163125,31.34425 0.316875,31.350125 0.3205625,31.354375 C0.3243125,31.358625 0.3323125,31.3634375 0.337625,31.3693125 C0.63725,31.7635625 1.10325,31.996 1.5984375,31.998125 L30.3984375,31.998125 C30.8955625,31.996625 31.3635,31.7630625 31.6635,31.3666875 C31.66775,31.361375 31.6741875,31.35975 31.677875,31.3544375 C31.681625,31.349125 31.682125,31.3443125 31.685375,31.3395 C31.8879375,31.067375 31.9976875,30.737375 31.9984375,30.3981875 L31.9984375,12.2648125 C31.998375,12.253625 31.9925625,12.244 31.992,12.2328125 Z M15.678375,1.17625 C15.864625,1.02825 16.128375,1.02825 16.314625,1.17625 L17.545,2.1314375 L14.4516875,2.1314375 L15.678375,1.17625 Z M1.7328125,30.9315 L15.6784375,20.0989375 C15.8648125,19.9511875 16.128375,19.9511875 16.3146875,20.0989375 L30.264,30.9315 L1.7328125,30.9315 Z M30.93175,30.1 L16.9711875,19.2573125 C16.399375,18.8118125 15.5979375,18.8118125 15.026125,19.2573125 L1.0650625,30.1 L1.0650625,13.0770625 L9.8048125,19.86375 C10.0376875,20.0443125 10.3728125,20.0019375 10.553375,19.7690625 C10.7339375,19.5361875 10.6915625,19.2010625 10.4586875,19.0205 L1.57975,12.126125 L5.33175,9.210375 L5.33175,13.3314375 C5.33175,13.626 5.5705625,13.86475 5.8650625,13.86475 C6.159625,13.86475 6.398375,13.6259375 6.398375,13.3314375 L6.398375,3.7314375 C6.398375,3.436875 6.637125,3.198125 6.9316875,3.198125 L25.065,3.198125 C25.3595625,3.198125 25.5983125,3.436875 25.5983125,3.7314375 L25.5983125,13.3314375 C25.5983125,13.626 25.8370625,13.86475 26.131625,13.86475 C26.4261875,13.86475 26.6649375,13.6259375 26.6649375,13.3314375 L26.6649375,9.210375 L30.4169375,12.126125 L21.5225625,19.0328125 C21.3695625,19.14875 21.290625,19.338 21.316,19.5283125 C21.341375,19.718625 21.4670625,19.880625 21.645125,19.9524375 C21.8231875,20.02425 22.026125,19.994875 22.1764375,19.8754375 L30.931625,13.0770625 L30.93175,30.1 L30.93175,30.1 Z" id="Shape"></path>
            <path d="M22.398375,12.798125 L22.398375,10.6648125 C22.398375,7.1301875 19.533,4.2648125 15.998375,4.2648125 C12.46375,4.2648125 9.598375,7.1301875 9.598375,10.6648125 C9.598375,14.1994375 12.46375,17.0648125 15.998375,17.0648125 C16.2929375,17.0648125 16.5316875,16.8260625 16.5316875,16.5315 C16.5316875,16.2369375 16.2929375,15.9981875 15.998375,15.9981875 C13.052875,15.9981875 10.6650625,13.610375 10.6650625,10.664875 C10.6650625,7.719375 13.052875,5.3315625 15.998375,5.3315625 C18.943875,5.3315625 21.3316875,7.719375 21.3316875,10.664875 L21.3316875,12.7981875 C21.3316875,13.3873125 20.854125,13.864875 20.265,13.864875 C19.675875,13.864875 19.1983125,13.3873125 19.1983125,12.7981875 L19.1983125,10.664875 C19.1983125,10.3703125 18.9595625,10.1315625 18.665,10.1315625 C18.3704375,10.1315625 18.1316875,10.3703125 18.1316875,10.664875 C18.1316875,11.8430625 17.1765625,12.7981875 15.998375,12.7981875 C14.8201875,12.7981875 13.8650625,11.8430625 13.8650625,10.664875 C13.8650625,9.4866875 14.8201875,8.5315625 15.998375,8.5315625 C16.2929375,8.5315625 16.5316875,8.2928125 16.5316875,7.99825 C16.5316875,7.7036875 16.2929375,7.4649375 15.998375,7.4649375 C14.5661875,7.46175 13.30625,8.4105625 12.91375,9.7879375 C12.52125,11.1653125 13.0916875,12.63575 14.3104375,13.388 C15.5291875,14.14025 17.0993125,13.991125 18.154625,13.0228125 C18.27075,14.1506875 19.2510625,14.9893125 20.3833125,14.929375 C21.515625,14.869375 22.4019375,13.932 22.398375,12.798125 Z" id="Path"></path>
        </g>
    </g>
</svg>