<?xml version="1.0" encoding="UTF-8"?>
<svg width="300px" height="200px" viewBox="0 0 300 200" version="1.1" xmlns="http://www.w3.org/2000/svg" xmlns:xlink="http://www.w3.org/1999/xlink">
    <!-- Generator: Sketch 53 (72520) - https://sketchapp.com -->
    <title>Slice 1</title>
    <desc>Created with Sketch.</desc>
    <g id="Page-1" stroke="none" stroke-width="1" fill="none" fill-rule="evenodd">
        <g id="icon-above-font">
            <rect id="Rectangle" fill="#f66733" fill-rule="nonzero" x="0" y="0" width="300" height="200"></rect>
            <text id="1-Stop-Dropshipping-Agent" font-family="Helvetica" font-size="12" font-weight="normal" fill="#FFFFF2">
                <tspan x="71" y="129.555556">1 Stop Dropshipping Agent</tspan>
            </text>
            <text id="Aliexpress-Alternati" font-family="Helvetica" font-size="12" font-weight="normal" fill="#FFFFF2">
                <tspan x="31" y="151.777778">Aliexpress Alternative Product Sourcing Agent</tspan>
            </text>
            <g id="35aa482a-129f-b603-0160-b2fc0f84203b" transform="translate(66.000000, 76.666667)" fill="#FFFDFB" fill-rule="nonzero">
                <path d="M6.4105589,9.02505019 C6.05749201,8.75621891 5.63822507,8.5833988 5.17482477,8.5833988 C4.66729112,8.5833988 4.24802418,8.75621891 3.93909065,9.02505019 L3.93909065,3.68682901 L2.15168951,5.29981671 C1.88688934,5.51104128 1.55588913,5.62625469 1.2469556,5.62625469 C0.938022066,5.62625469 0.629088535,5.51104128 0.386355047,5.31901894 C-0.121178611,4.89656978 -0.121178611,4.22449158 0.342221685,3.78284019 L4.20389082,0.326437986 C4.46869099,0.115213407 4.77762452,0 5.10862473,0 L5.17482477,0 C5.85889188,0 6.4105589,0.480055861 6.4105589,1.07532513 L6.4105589,9.02505019 Z M6.4105589,10.1003753 L6.4105589,17.7428646 C6.4105589,18.3381339 5.85889188,18.8181898 5.17482477,18.8181898 C4.49075767,18.8181898 3.93909065,18.3381339 3.93909065,17.7428646 L3.93909065,10.1003753 L3.93909065,10.0235664 C4.00529069,9.46670158 4.51282435,9.02505019 5.17482477,9.02505019 C5.81475852,9.02505019 6.34435886,9.46670158 6.4105589,10.0235664 L6.4105589,10.1003753 Z M9.19096067,9.15946583 C9.19096067,8.71781444 9.2792274,8.25696081 9.41162748,7.85371389 C10.0294945,6.04870385 11.8830957,4.72374967 14.0014971,4.72374967 L14.0456304,4.72374967 C16.7156988,4.72374967 18.9223669,6.72078205 18.9223669,9.15946583 C18.9223669,9.35148817 18.8561669,9.52430828 18.7899668,9.65872392 C18.5693,10.0043641 18.1500331,10.234791 17.6866328,10.234791 C17.1790991,10.234791 16.7598322,10.0043641 16.5612321,9.65872392 C16.4729653,9.52430828 16.4508986,9.35148817 16.4508986,9.15946583 C16.4508986,8.54499433 16.1640318,7.94972506 15.7006315,7.5272759 C15.2372312,7.12402898 14.6634975,6.87439993 14.0456304,6.87439993 C13.4277634,6.87439993 12.831963,7.12402898 12.3906294,7.5272759 C11.9051624,7.94972506 11.6624289,8.54499433 11.6624289,9.15946583 C11.6624289,9.35148817 11.6182956,9.52430828 11.5300288,9.65872392 C11.309362,10.0043641 10.9121618,10.234791 10.4266948,10.234791 C9.91916114,10.234791 9.52196089,10.0043641 9.30129408,9.65872392 C9.25716072,9.52430828 9.19096067,9.35148817 9.19096067,9.15946583 Z M15.9212983,14.3824736 C15.9212983,14.4016758 15.8992316,14.4400803 15.8992316,14.4592825 L10.6032282,10.6956446 C11.5079622,10.6188356 12.1920293,9.94675744 12.1920293,9.15946583 L12.1920293,9.02505019 L17.532166,12.8462948 C16.6274321,12.9039015 15.9212983,13.5759798 15.9212983,14.3824736 Z M18.9223669,14.3824736 C18.9223669,14.8433272 18.8341002,15.3041809 18.6796334,15.7074278 C18.0617663,17.4932356 16.2302318,18.8181898 14.0676971,18.8181898 L14.0456304,18.8181898 C11.3755621,18.8181898 9.19096067,16.8211574 9.19096067,14.3824736 C9.19096067,14.1904513 9.25716072,14.0368334 9.30129408,13.9024177 C9.52196089,13.5567775 9.91916114,13.3071485 10.4266948,13.3071485 C10.9121618,13.3071485 11.309362,13.5567775 11.5300288,13.9024177 C11.6182956,14.0368334 11.6624289,14.1904513 11.6624289,14.3824736 C11.6624289,14.9969451 11.9051624,15.5922144 12.3906294,16.0146635 C12.831963,16.4179104 13.4277634,16.6675395 14.0456304,16.6675395 C14.6634975,16.6675395 15.2372312,16.4179104 15.7006315,16.0146635 C16.1640318,15.5922144 16.4508986,14.9969451 16.4508986,14.3824736 C16.4508986,14.1904513 16.4729653,14.0368334 16.5612321,13.9024177 C16.7598322,13.5567775 17.1790991,13.3071485 17.6866328,13.3071485 C18.1500331,13.3071485 18.5693,13.5567775 18.7899668,13.9024177 C18.8561669,14.0368334 18.9223669,14.1904513 18.9223669,14.3824736 Z M26.5133051,4.72374967 C26.5133051,5.31901894 25.9616381,5.7990748 25.277571,5.7990748 L23.2474363,5.7990748 L23.2474363,13.2879462 C22.9385028,13.019115 22.4971692,12.8462948 22.0117022,12.8462948 C21.5041685,12.8462948 21.0849016,13.019115 20.7759681,13.2879462 L20.7759681,1.07532513 C20.7759681,0.480055861 21.3276351,0 22.0117022,0 C22.6957693,0 23.2474363,0.480055861 23.2474363,1.07532513 L23.2474363,3.64842454 L25.277571,3.64842454 C25.9616381,3.64842454 26.5133051,4.14768264 26.5133051,4.72374967 Z M22.0117022,13.3071485 C22.6957693,13.3071485 23.2474363,13.7872043 23.2474363,14.3824736 C23.2474363,14.9969451 23.5122365,15.5922144 23.9756368,16.0146635 C24.4169704,16.4563149 25.0127708,16.6675395 25.6306379,16.6675395 C26.2926383,16.6675395 26.9546387,16.3987082 27.418039,15.8802479 C27.8373059,15.4385965 28.6096398,15.3809898 29.1392401,15.7458322 C29.6909071,16.1298769 29.7571072,16.8019551 29.3378402,17.2628088 C28.4110396,18.261325 27.0649721,18.8181898 25.6306379,18.8181898 C22.9605695,18.8181898 20.7759681,16.8211574 20.7759681,14.3824736 C20.7759681,13.7872043 21.3276351,13.3071485 22.0117022,13.3071485 Z M35.847511,4.70454744 C33.1995094,4.70454744 30.9928413,6.70157982 30.9928413,9.14026359 L30.9928413,13.2879462 C31.3017748,13.019115 31.7431084,12.8462948 32.2285754,12.8462948 C32.7361091,12.8462948 33.155376,13.019115 33.4643095,13.2879462 L33.4643095,9.14026359 C33.4643095,8.52579209 33.707043,7.93052282 34.2145767,7.50807367 C34.6338436,7.06642227 35.229644,6.8551977 35.847511,6.8551977 C36.4653781,6.8551977 37.0611785,7.06642227 37.5245788,7.50807367 C37.9879791,7.93052282 38.2527793,8.52579209 38.2527793,9.14026359 L38.2527793,13.2879462 C38.5617128,13.019115 39.0030464,12.8462948 39.4885134,12.8462948 C39.9519137,12.8462948 40.3932473,13.019115 40.7242475,13.2879462 L40.7242475,9.14026359 C40.7242475,6.70157982 38.5396461,4.70454744 35.847511,4.70454744 Z M39.4885134,13.3071485 C39.0030464,13.3071485 38.5617128,13.5567775 38.3851793,13.9024177 C38.2969126,14.0368334 38.2527793,14.1904513 38.2527793,14.3824736 C38.2527793,14.9969451 37.9879791,15.5922144 37.5245788,16.0146635 C37.0611785,16.4179104 36.4653781,16.6675395 35.847511,16.6675395 C35.229644,16.6675395 34.6338436,16.4179104 34.2145767,16.0146635 C33.707043,15.5922144 33.4643095,14.9969451 33.4643095,14.3824736 C33.4643095,14.1904513 33.4422428,14.0368334 33.3539761,13.9024177 C33.1333093,13.5567775 32.7361091,13.3071485 32.2285754,13.3071485 C31.7431084,13.3071485 31.3459082,13.5567775 31.1252414,13.9024177 C31.0590413,14.0368334 30.9928413,14.1904513 30.9928413,14.3824736 C30.9928413,16.8211574 33.1995094,18.8181898 35.847511,18.8181898 L35.8695777,18.8181898 C38.0321124,18.8181898 39.8636469,17.4932356 40.481514,15.7074278 C40.6359808,15.3041809 40.7242475,14.8433272 40.7242475,14.3824736 C40.7242475,14.1904513 40.6580475,14.0368334 40.6139141,13.9024177 C40.3932473,13.5567775 39.9519137,13.3071485 39.4885134,13.3071485 Z M42.5778487,9.14026359 C42.5778487,8.67940997 42.6661154,8.21855634 42.7985155,7.81530942 C43.4163826,6.02950161 45.2699837,4.72374967 47.4104518,4.70454744 L47.4325185,4.70454744 C50.1246535,4.70454744 52.3092549,6.70157982 52.3092549,9.14026359 C52.3092549,9.33228594 52.2430549,9.48590381 52.1989215,9.62031946 C51.9782547,9.96595968 51.5369211,10.2155887 51.0735208,10.2155887 C50.5880538,10.2155887 50.1467202,9.96595968 49.9701867,9.62031946 C49.88192,9.48590381 49.8377867,9.33228594 49.8377867,9.14026359 C49.8377867,8.52579209 49.5729865,7.94972506 49.1095862,7.50807367 C48.6461859,7.10482674 48.0503855,6.8551977 47.4325185,6.8551977 C46.8146514,6.8551977 46.218851,7.10482674 45.7995841,7.50807367 C45.2920504,7.94972506 45.0493169,8.52579209 45.0493169,9.14026359 C45.0493169,9.33228594 45.0272502,9.48590381 44.9389835,9.62031946 C44.7183167,9.96595968 44.3211165,10.2155887 43.8135828,10.2155887 C43.3281158,10.2155887 42.9309156,9.96595968 42.7102488,9.62031946 C42.6440487,9.48590381 42.5778487,9.33228594 42.5778487,9.14026359 Z M52.3092549,14.3824736 C52.3092549,16.8211574 50.1246535,18.8181898 47.4325185,18.8181898 C46.5719179,18.8181898 45.7554507,18.6069652 45.0493169,18.261325 L45.0493169,23.3307148 C45.0493169,23.9259841 44.4976499,24.40604 43.8135828,24.40604 C43.1295157,24.40604 42.5778487,23.9259841 42.5778487,23.3307148 L42.5778487,10.2155887 C42.8867822,10.5036222 43.3281158,10.6764423 43.8135828,10.6764423 C44.3211165,10.6764423 44.7403834,10.5036222 45.0493169,10.2155887 L45.0493169,14.3824736 C45.0493169,14.9969451 45.2920504,15.5922144 45.7995841,16.0146635 C46.218851,16.4563149 46.8146514,16.6675395 47.4325185,16.6675395 C48.0503855,16.6675395 48.6461859,16.4563149 49.1095862,16.0146635 C49.5729865,15.5922144 49.8377867,14.9969451 49.8377867,14.3824736 L49.8377867,10.2155887 C50.1467202,10.5036222 50.5880538,10.6764423 51.0735208,10.6764423 C51.5369211,10.6764423 51.9782547,10.5036222 52.3092549,10.2155887 L52.3092549,14.3824736 Z M63.8942623,7.06642227 C63.364662,6.06790608 62.5040614,5.26141224 61.4227941,4.78135638 L61.4227941,1.13293183 C61.4227941,0.537662564 61.9744611,0.0576067033 62.6585282,0.0576067033 C63.3425953,0.0576067033 63.8942623,0.537662564 63.8942623,1.13293183 L63.8942623,7.06642227 Z M54.1628561,9.15946583 C54.1628561,8.71781444 54.2511228,8.27616304 54.3835229,7.85371389 C55.00139,6.04870385 56.8549911,4.76215414 58.9954592,4.72374967 L59.0175259,4.72374967 C61.7096609,4.72374967 63.8942623,6.72078205 63.8942623,9.15946583 C63.8942623,9.35148817 63.8280623,9.52430828 63.7839289,9.65872392 C63.5632621,10.0043641 63.1219285,10.234791 62.6585282,10.234791 C62.1730612,10.234791 61.7317276,10.0043641 61.5551941,9.65872392 C61.4669274,9.52430828 61.4227941,9.35148817 61.4227941,9.15946583 C61.4227941,8.54499433 61.1579939,7.98812953 60.6945936,7.5272759 C60.2311933,7.12402898 59.6353929,6.87439993 59.0175259,6.87439993 C58.3996588,6.87439993 57.8038584,7.12402898 57.3845915,7.5272759 C56.8770578,7.98812953 56.6343243,8.54499433 56.6343243,9.15946583 C56.6343243,9.35148817 56.6122577,9.52430828 56.5239909,9.65872392 C56.3033241,10.0043641 55.9061239,10.234791 55.3985902,10.234791 C54.9131232,10.234791 54.515923,10.0043641 54.2952562,9.65872392 C54.2290561,9.52430828 54.1628561,9.35148817 54.1628561,9.15946583 Z M62.6585282,10.6956446 C63.1219285,10.6956446 63.5632621,10.5420267 63.8942623,10.2731954 L63.8942623,14.3824736 C63.8942623,16.8211574 61.7096609,18.8181898 59.0175259,18.8181898 C56.3695242,18.8181898 54.1628561,16.8211574 54.1628561,14.3824736 L54.1628561,10.2731954 C54.4717896,10.5420267 54.9131232,10.6956446 55.3985902,10.6956446 C55.9061239,10.6956446 56.3253908,10.5420267 56.6343243,10.2731954 L56.6343243,14.3824736 C56.6343243,14.9969451 56.8770578,15.5922144 57.3845915,16.0146635 C57.8038584,16.4179104 58.3996588,16.6675395 59.0175259,16.6675395 C59.6353929,16.6675395 60.2311933,16.4179104 60.6945936,16.0146635 C61.1579939,15.5922144 61.4227941,14.9969451 61.4227941,14.3824736 L61.4227941,10.2731954 C61.7317276,10.5420267 62.1730612,10.6956446 62.6585282,10.6956446 Z M74.3097356,6.2983329 C73.382935,5.29981671 72.0589342,4.72374967 70.6025333,4.72374967 C69.6757327,4.72374967 68.7709988,4.97337872 68.0427983,5.39582788 C67.8221315,5.10779436 67.4249312,4.89656978 66.9835976,4.89656978 C66.2995305,4.89656978 65.7478635,5.37662564 65.7478635,5.97189491 L65.7478635,9.15946583 C65.7478635,9.7547351 66.2995305,10.234791 66.9835976,10.234791 C67.6676647,10.234791 68.2193317,9.7547351 68.2193317,9.15946583 C68.2193317,8.54499433 68.5061986,7.94972506 68.9695989,7.5272759 C69.3888658,7.10482674 69.9846662,6.87439993 70.6025333,6.87439993 C71.2866004,6.87439993 71.9265341,7.14323121 72.3899344,7.66169154 C72.831268,8.12254517 73.6036019,8.18015187 74.1332022,7.79610718 C74.6848692,7.41206249 74.7510693,6.73998429 74.3097356,6.2983329 Z M66.9835976,10.6956446 C66.4981306,10.6956446 66.056797,10.5420267 65.7478635,10.234791 L65.7478635,17.7428646 C65.7478635,18.3381339 66.2995305,18.8181898 66.9835976,18.8181898 C67.6676647,18.8181898 68.2193317,18.3381339 68.2193317,17.7428646 L68.2193317,10.234791 C67.9103982,10.5420267 67.4911313,10.6956446 66.9835976,10.6956446 Z M80.3560062,4.70454744 C77.7080045,4.70454744 75.5234031,6.70157982 75.5234031,9.14026359 L75.5234031,13.2879462 C75.8323366,13.019115 76.2516035,12.8462948 76.7591372,12.8462948 C77.2446042,12.8462948 77.6859378,13.019115 77.9948713,13.2879462 L77.9948713,9.14026359 C77.9948713,8.52579209 78.2376048,7.93052282 78.7230718,7.50807367 C79.1644054,7.06642227 79.7381391,6.8551977 80.3560062,6.8551977 C80.9738732,6.8551977 81.5696736,7.06642227 82.0330739,7.50807367 C82.4964742,7.93052282 82.7833411,8.52579209 82.7833411,9.14026359 L82.7833411,13.2879462 C83.0922746,13.019115 83.5115415,12.8462948 84.0190752,12.8462948 C84.4824755,12.8462948 84.9017424,13.019115 85.2548093,13.2879462 L85.2548093,9.14026359 C85.2548093,6.70157982 83.0481412,4.70454744 80.3560062,4.70454744 Z M84.0190752,13.3071485 C83.5115415,13.3071485 83.0922746,13.5567775 82.8936745,13.9024177 C82.8054077,14.0368334 82.7833411,14.1904513 82.7833411,14.3824736 C82.7833411,14.9969451 82.4964742,15.5922144 82.0330739,16.0146635 C81.5696736,16.4179104 80.9738732,16.6675395 80.3560062,16.6675395 C79.7381391,16.6675395 79.1644054,16.4179104 78.7230718,16.0146635 C78.2376048,15.5922144 77.9948713,14.9969451 77.9948713,14.3824736 C77.9948713,14.1904513 77.950738,14.0368334 77.8624712,13.9024177 C77.6418044,13.5567775 77.2446042,13.3071485 76.7591372,13.3071485 C76.2516035,13.3071485 75.8544033,13.5567775 75.6337365,13.9024177 C75.5675364,14.0368334 75.5234031,14.1904513 75.5234031,14.3824736 C75.5234031,16.8211574 77.7080045,18.8181898 80.3560062,18.8181898 L80.4001395,18.8181898 C82.5626742,18.8181898 84.3721421,17.4932356 84.9900091,15.7074278 C85.1444759,15.3041809 85.2548093,14.8433272 85.2548093,14.3824736 C85.2548093,14.1904513 85.1886093,14.0368334 85.1224092,13.9024177 C84.9017424,13.5567775 84.4824755,13.3071485 84.0190752,13.3071485 Z M87.1084105,9.14026359 C87.1084105,8.67940997 87.1966772,8.21855634 87.3070106,7.81530942 C87.9248777,6.02950161 89.7784789,4.72374967 91.9189469,4.70454744 L91.9410136,4.70454744 C94.6331486,4.70454744 96.8398167,6.70157982 96.8398167,9.14026359 C96.8398167,9.33228594 96.7736167,9.48590381 96.7074166,9.62031946 C96.4867498,9.96595968 96.0674829,10.2155887 95.6040826,10.2155887 C95.0965489,10.2155887 94.677282,9.96595968 94.4786819,9.62031946 C94.3904151,9.48590381 94.3683485,9.33228594 94.3683485,9.14026359 C94.3683485,8.52579209 94.0814816,7.94972506 93.6180813,7.50807367 C93.154681,7.10482674 92.5588806,6.8551977 91.9410136,6.8551977 C91.3231465,6.8551977 90.7494128,7.10482674 90.3080792,7.50807367 C89.8226122,7.94972506 89.5798787,8.52579209 89.5798787,9.14026359 C89.5798787,9.33228594 89.5357454,9.48590381 89.4474786,9.62031946 C89.2268118,9.96595968 88.8296116,10.2155887 88.3441446,10.2155887 C87.8366109,10.2155887 87.4394107,9.96595968 87.2187439,9.62031946 C87.1525438,9.48590381 87.1084105,9.33228594 87.1084105,9.14026359 Z M96.8398167,14.3824736 C96.8398167,16.8211574 94.6331486,18.8181898 91.9410136,18.8181898 C91.080413,18.8181898 90.2860125,18.6069652 89.5798787,18.261325 L89.5798787,23.3307148 C89.5798787,23.9259841 89.006145,24.40604 88.3441446,24.40604 C87.6600775,24.40604 87.1084105,23.9259841 87.1084105,23.3307148 L87.1084105,10.2155887 C87.417344,10.5036222 87.8366109,10.6764423 88.3441446,10.6764423 C88.8296116,10.6764423 89.2709452,10.5036222 89.5798787,10.2155887 L89.5798787,14.3824736 C89.5798787,14.9969451 89.8226122,15.5922144 90.3080792,16.0146635 C90.7494128,16.4563149 91.3231465,16.6675395 91.9410136,16.6675395 C92.5588806,16.6675395 93.154681,16.4563149 93.6180813,16.0146635 C94.0814816,15.5922144 94.3683485,14.9969451 94.3683485,14.3824736 L94.3683485,10.2155887 C94.677282,10.5036222 95.0965489,10.6764423 95.6040826,10.6764423 C96.0674829,10.6764423 96.4867498,10.5036222 96.8398167,10.2155887 L96.8398167,14.3824736 Z M98.6934179,9.15946583 C98.6934179,8.71781444 98.7816846,8.25696081 98.892018,7.85371389 C99.5098851,6.04870385 101.363486,4.72374967 103.503954,4.72374967 L103.526021,4.72374967 C106.218156,4.72374967 108.424824,6.72078205 108.424824,9.15946583 C108.424824,9.35148817 108.358624,9.52430828 108.292424,9.65872392 C108.071757,10.0043641 107.65249,10.234791 107.18909,10.234791 C106.681556,10.234791 106.262289,10.0043641 106.063689,9.65872392 C105.975423,9.52430828 105.953356,9.35148817 105.953356,9.15946583 C105.953356,8.54499433 105.666489,7.94972506 105.203089,7.5272759 C104.739688,7.12402898 104.143888,6.87439993 103.526021,6.87439993 C102.908154,6.87439993 102.33442,7.12402898 101.893087,7.5272759 C101.40762,7.94972506 101.164886,8.54499433 101.164886,9.15946583 C101.164886,9.35148817 101.120753,9.52430828 101.032486,9.65872392 C100.811819,10.0043641 100.414619,10.234791 99.929152,10.234791 C99.4216184,10.234791 99.0244181,10.0043641 98.8037513,9.65872392 C98.7375512,9.52430828 98.6934179,9.35148817 98.6934179,9.15946583 Z M105.423756,14.3824736 C105.423756,14.4016758 105.379622,14.4400803 105.379622,14.4592825 L100.105685,10.6956446 C101.010419,10.6188356 101.67242,9.94675744 101.67242,9.15946583 L101.67242,9.02505019 L107.034623,12.8462948 C106.129889,12.9039015 105.423756,13.5759798 105.423756,14.3824736 Z M108.424824,14.3824736 C108.424824,14.8433272 108.314491,15.3041809 108.160024,15.7074278 C107.542157,17.4932356 105.732689,18.8181898 103.570154,18.8181898 L103.526021,18.8181898 C100.878019,18.8181898 98.6934179,16.8211574 98.6934179,14.3824736 C98.6934179,14.1904513 98.7375512,14.0368334 98.8037513,13.9024177 C99.0244181,13.5567775 99.4216184,13.3071485 99.929152,13.3071485 C100.414619,13.3071485 100.811819,13.5567775 101.032486,13.9024177 C101.120753,14.0368334 101.164886,14.1904513 101.164886,14.3824736 C101.164886,14.9969451 101.40762,15.5922144 101.893087,16.0146635 C102.33442,16.4179104 102.908154,16.6675395 103.526021,16.6675395 C104.143888,16.6675395 104.739688,16.4179104 105.203089,16.0146635 C105.666489,15.5922144 105.953356,14.9969451 105.953356,14.3824736 C105.953356,14.1904513 105.975423,14.0368334 106.063689,13.9024177 C106.262289,13.5567775 106.681556,13.3071485 107.18909,13.3071485 C107.65249,13.3071485 108.071757,13.5567775 108.292424,13.9024177 C108.358624,14.0368334 108.424824,14.1904513 108.424824,14.3824736 Z M112.749894,4.78135638 C111.668626,5.26141224 110.785959,6.06790608 110.278425,7.06642227 L110.278425,1.13293183 C110.278425,0.537662564 110.830092,0.0576067033 111.514159,0.0576067033 C112.17616,0.0576067033 112.749894,0.537662564 112.749894,1.13293183 L112.749894,4.78135638 Z M120.009832,9.255477 C119.943631,9.8123418 119.414031,10.234791 118.774097,10.234791 C118.09003,10.234791 117.56043,9.8123418 117.538363,9.255477 L117.538363,9.15946583 C117.538363,8.54499433 117.251496,7.94972506 116.788096,7.5272759 C116.324696,7.12402898 115.728895,6.87439993 115.111028,6.87439993 C114.493161,6.87439993 113.919428,7.12402898 113.478094,7.5272759 C112.992627,7.94972506 112.749894,8.54499433 112.749894,9.15946583 C112.749894,9.7547351 112.17616,10.234791 111.514159,10.234791 C110.830092,10.234791 110.278425,9.7547351 110.278425,9.15946583 C110.278425,7.5272759 111.249359,6.06790608 112.749894,5.29981671 C113.456027,4.95417649 114.250428,4.72374967 115.111028,4.72374967 C117.803163,4.72374967 120.009832,6.72078205 120.009832,9.15946583 L120.009832,9.255477 Z M111.514159,10.6956446 C111.999626,10.6956446 112.44096,10.5420267 112.749894,10.2731954 L112.749894,17.7428646 C112.749894,18.3381339 112.17616,18.8181898 111.514159,18.8181898 C110.830092,18.8181898 110.278425,18.3381339 110.278425,17.7428646 L110.278425,10.2731954 C110.587359,10.5420267 111.006626,10.6956446 111.514159,10.6956446 Z M120.009832,17.7428646 C120.009832,18.3381339 119.436098,18.8181898 118.774097,18.8181898 C118.09003,18.8181898 117.538363,18.3381339 117.538363,17.7428646 L117.538363,10.2731954 C117.847297,10.5420267 118.266564,10.6956446 118.774097,10.6956446 C119.237498,10.6956446 119.656765,10.5420267 120.009832,10.2731954 L120.009832,17.7428646 Z M124.334901,2.15065026 C124.334901,2.76512176 123.761167,3.24517762 123.099167,3.24517762 C122.4151,3.24517762 121.863433,2.76512176 121.863433,2.15065026 C121.863433,1.55538099 122.4151,1.07532513 123.099167,1.07532513 C123.761167,1.07532513 124.334901,1.55538099 124.334901,2.15065026 Z M124.334901,9.1978703 C124.025967,8.92903902 123.584634,8.75621891 123.099167,8.75621891 C122.635767,8.75621891 122.172366,8.92903902 121.863433,9.1978703 L121.863433,5.77987257 C121.863433,5.1846033 122.4151,4.70454744 123.099167,4.70454744 C123.761167,4.70454744 124.334901,5.1846033 124.334901,5.77987257 L124.334901,9.1978703 Z M124.334901,10.2923977 L124.334901,17.7428646 C124.334901,18.3381339 123.761167,18.8181898 123.099167,18.8181898 C122.4151,18.8181898 121.863433,18.3381339 121.863433,17.7428646 L121.863433,10.2923977 L121.863433,10.1963865 C121.907566,9.65872392 122.437166,9.21707253 123.099167,9.21707253 C123.739101,9.21707253 124.268701,9.65872392 124.334901,10.1963865 L124.334901,10.2923977 Z M126.188502,9.14026359 C126.188502,8.67940997 126.276769,8.21855634 126.387102,7.81530942 C127.004969,6.02950161 128.858571,4.72374967 130.999039,4.70454744 L131.021105,4.70454744 C133.71324,4.70454744 135.919908,6.70157982 135.919908,9.14026359 C135.919908,9.33228594 135.853708,9.48590381 135.787508,9.62031946 C135.566841,9.96595968 135.147575,10.2155887 134.684174,10.2155887 C134.176641,10.2155887 133.757374,9.96595968 133.558774,9.62031946 C133.470507,9.48590381 133.44844,9.33228594 133.44844,9.14026359 C133.44844,8.52579209 133.161573,7.94972506 132.698173,7.50807367 C132.234773,7.10482674 131.638972,6.8551977 131.021105,6.8551977 C130.403238,6.8551977 129.829504,7.10482674 129.388171,7.50807367 C128.902704,7.94972506 128.65997,8.52579209 128.65997,9.14026359 C128.65997,9.33228594 128.615837,9.48590381 128.52757,9.62031946 C128.306903,9.96595968 127.909703,10.2155887 127.424236,10.2155887 C126.916703,10.2155887 126.519502,9.96595968 126.298836,9.62031946 C126.232635,9.48590381 126.188502,9.33228594 126.188502,9.14026359 Z M135.919908,14.3824736 C135.919908,16.8211574 133.71324,18.8181898 131.021105,18.8181898 C130.160505,18.8181898 129.366104,18.6069652 128.65997,18.261325 L128.65997,23.3307148 C128.65997,23.9259841 128.086237,24.40604 127.424236,24.40604 C126.740169,24.40604 126.188502,23.9259841 126.188502,23.3307148 L126.188502,10.2155887 C126.497436,10.5036222 126.916703,10.6764423 127.424236,10.6764423 C127.909703,10.6764423 128.351037,10.5036222 128.65997,10.2155887 L128.65997,14.3824736 C128.65997,14.9969451 128.902704,15.5922144 129.388171,16.0146635 C129.829504,16.4563149 130.403238,16.6675395 131.021105,16.6675395 C131.638972,16.6675395 132.234773,16.4563149 132.698173,16.0146635 C133.161573,15.5922144 133.44844,14.9969451 133.44844,14.3824736 L133.44844,10.2155887 C133.757374,10.5036222 134.176641,10.6764423 134.684174,10.6764423 C135.147575,10.6764423 135.566841,10.5036222 135.919908,10.2155887 L135.919908,14.3824736 Z M137.77351,9.14026359 C137.77351,8.67940997 137.861776,8.21855634 137.97211,7.81530942 C138.589977,6.02950161 140.443578,4.72374967 142.584046,4.70454744 L142.606113,4.70454744 C145.298248,4.70454744 147.504916,6.70157982 147.504916,9.14026359 C147.504916,9.33228594 147.438716,9.48590381 147.372516,9.62031946 C147.151849,9.96595968 146.732582,10.2155887 146.269182,10.2155887 C145.761648,10.2155887 145.342381,9.96595968 145.143781,9.62031946 C145.055514,9.48590381 145.033448,9.33228594 145.033448,9.14026359 C145.033448,8.52579209 144.746581,7.94972506 144.28318,7.50807367 C143.81978,7.10482674 143.22398,6.8551977 142.606113,6.8551977 C141.988246,6.8551977 141.414512,7.10482674 140.973178,7.50807367 C140.487711,7.94972506 140.244978,8.52579209 140.244978,9.14026359 C140.244978,9.33228594 140.200844,9.48590381 140.112578,9.62031946 C139.891911,9.96595968 139.494711,10.2155887 139.009244,10.2155887 C138.50171,10.2155887 138.10451,9.96595968 137.883843,9.62031946 C137.817643,9.48590381 137.77351,9.33228594 137.77351,9.14026359 Z M147.504916,14.3824736 C147.504916,16.8211574 145.298248,18.8181898 142.606113,18.8181898 C141.745512,18.8181898 140.951112,18.6069652 140.244978,18.261325 L140.244978,23.3307148 C140.244978,23.9259841 139.671244,24.40604 139.009244,24.40604 C138.325177,24.40604 137.77351,23.9259841 137.77351,23.3307148 L137.77351,10.2155887 C138.082443,10.5036222 138.50171,10.6764423 139.009244,10.6764423 C139.494711,10.6764423 139.936044,10.5036222 140.244978,10.2155887 L140.244978,14.3824736 C140.244978,14.9969451 140.487711,15.5922144 140.973178,16.0146635 C141.414512,16.4563149 141.988246,16.6675395 142.606113,16.6675395 C143.22398,16.6675395 143.81978,16.4563149 144.28318,16.0146635 C144.746581,15.5922144 145.033448,14.9969451 145.033448,14.3824736 L145.033448,10.2155887 C145.342381,10.5036222 145.761648,10.6764423 146.269182,10.6764423 C146.732582,10.6764423 147.151849,10.5036222 147.504916,10.2155887 L147.504916,14.3824736 Z M151.829985,2.15065026 C151.829985,2.76512176 151.256251,3.24517762 150.594251,3.24517762 C149.910184,3.24517762 149.358517,2.76512176 149.358517,2.15065026 C149.358517,1.55538099 149.910184,1.07532513 150.594251,1.07532513 C151.256251,1.07532513 151.829985,1.55538099 151.829985,2.15065026 Z M151.829985,9.1978703 C151.521052,8.92903902 151.079718,8.75621891 150.594251,8.75621891 C150.130851,8.75621891 149.66745,8.92903902 149.358517,9.1978703 L149.358517,5.77987257 C149.358517,5.1846033 149.910184,4.70454744 150.594251,4.70454744 C151.256251,4.70454744 151.829985,5.1846033 151.829985,5.77987257 L151.829985,9.1978703 Z M151.829985,10.2923977 L151.829985,17.7428646 C151.829985,18.3381339 151.256251,18.8181898 150.594251,18.8181898 C149.910184,18.8181898 149.358517,18.3381339 149.358517,17.7428646 L149.358517,10.2923977 L149.358517,10.1963865 C149.40265,9.65872392 149.932251,9.21707253 150.594251,9.21707253 C151.234185,9.21707253 151.763785,9.65872392 151.829985,10.1963865 L151.829985,10.2923977 Z M163.414993,9.255477 C163.348793,9.8123418 162.819192,10.234791 162.179258,10.234791 C161.495191,10.234791 160.965591,9.8123418 160.943524,9.255477 L160.943524,9.15946583 C160.943524,8.54499433 160.656657,7.94972506 160.193257,7.5272759 C159.729857,7.12402898 159.134057,6.87439993 158.516189,6.87439993 C157.898322,6.87439993 157.324589,7.12402898 156.883255,7.5272759 C156.397788,7.94972506 156.155055,8.54499433 156.155055,9.15946583 C156.155055,9.7547351 155.581321,10.234791 154.91932,10.234791 C154.235253,10.234791 153.683586,9.7547351 153.683586,9.15946583 C153.683586,6.72078205 155.868188,4.72374967 158.516189,4.72374967 C161.208325,4.72374967 163.414993,6.72078205 163.414993,9.15946583 L163.414993,9.255477 Z M154.91932,10.6956446 C155.404787,10.6956446 155.846121,10.5420267 156.155055,10.2731954 L156.155055,17.7428646 C156.155055,18.3381339 155.581321,18.8181898 154.91932,18.8181898 C154.235253,18.8181898 153.683586,18.3381339 153.683586,17.7428646 L153.683586,10.2731954 C153.99252,10.5420267 154.411787,10.6956446 154.91932,10.6956446 Z M163.414993,17.7428646 C163.414993,18.3381339 162.841259,18.8181898 162.179258,18.8181898 C161.495191,18.8181898 160.943524,18.3381339 160.943524,17.7428646 L160.943524,10.2731954 C161.252458,10.5420267 161.671725,10.6956446 162.179258,10.6956446 C162.642659,10.6956446 163.061926,10.5420267 163.414993,10.2731954 L163.414993,17.7428646 Z M175,13.2879462 C174.646933,13.019115 174.227666,12.8462948 173.764266,12.8462948 C173.256732,12.8462948 172.837465,13.019115 172.528532,13.2879462 L172.528532,9.14026359 C172.528532,8.52579209 172.241665,7.93052282 171.778265,7.50807367 C171.314864,7.10482674 170.719064,6.8551977 170.101197,6.8551977 C169.48333,6.8551977 168.909596,7.10482674 168.468262,7.50807367 C167.982796,7.93052282 167.740062,8.52579209 167.740062,9.14026359 L167.740062,13.2879462 C167.431128,13.019115 166.989795,12.8462948 166.504328,12.8462948 C165.996794,12.8462948 165.577527,13.019115 165.268594,13.2879462 L165.268594,9.14026359 C165.268594,6.70157982 167.453195,4.70454744 170.101197,4.70454744 C172.793332,4.70454744 175,6.70157982 175,9.14026359 L175,13.2879462 Z M170.101197,18.8181898 C167.453195,18.8181898 165.268594,16.8211574 165.268594,14.3824736 C165.268594,13.7872043 165.820261,13.3071485 166.504328,13.3071485 C167.166328,13.3071485 167.740062,13.7872043 167.740062,14.3824736 C167.740062,14.9969451 167.982796,15.5922144 168.468262,16.0146635 C168.909596,16.4563149 169.48333,16.6675395 170.101197,16.6675395 C170.719064,16.6675395 171.314864,16.4563149 171.778265,16.0146635 C172.241665,15.5922144 172.528532,14.9969451 172.528532,14.3824736 C172.528532,13.7872043 173.080199,13.3071485 173.764266,13.3071485 C174.426266,13.3071485 175,13.7872043 175,14.3824736 C175,16.8211574 172.793332,18.8181898 170.101197,18.8181898 Z M175,20.0087283 C175,22.4474121 172.793332,24.4444444 170.101197,24.4444444 C168.821329,24.4444444 167.607662,24.0603998 166.747061,23.3883216 C165.776127,22.6586366 165.268594,21.621716 165.268594,20.4311774 C165.268594,19.8167059 165.820261,19.3558523 166.504328,19.3558523 C167.166328,19.3558523 167.740062,19.8167059 167.740062,20.4311774 C167.740062,20.9880422 167.938662,21.4488959 168.379996,21.7753339 C168.821329,22.1017718 169.439196,22.2937942 170.101197,22.2937942 C170.719064,22.2937942 171.314864,22.0441651 171.778265,21.6409182 C172.241665,21.1800646 172.528532,20.6231998 172.528532,20.0087283 L172.528532,18.760583 C173.609799,18.2805272 174.4704,17.4740333 175,16.4755172 L175,20.0087283 Z" id="Shape"></path>
            </g>
            <g id="a01db5a5-2b76-5264-5fa6-883552b4792e" transform="translate(124.000000, 17.777778)" fill="#FFFDFB" fill-rule="nonzero">
                <g id="Group" transform="translate(0.652645, 0.000000)">
                    <polygon id="Path" points="0.07426405 24.4720988 18.2934634 31.7407407 18.2934634 48.7012346 0.07426405 41.4320988"></polygon>
                    <polygon id="Path" points="43.7994514 25.6834568 20.1151606 31.7407407 20.1151606 48.7012346 43.7994514 42.6439506"></polygon>
                    <path d="M23.7585549,20.8375309 L43.7987087,28.1061728 L43.7987087,25.6834568 L23.7585549,18.4148148 L18.7004304,19.7071605 L19.6636351,21.8849383 L23.7585549,20.8375309 Z M13.4343666,21.0538272 L0.07426405,24.4720988 L0.07426405,26.8948148 L14.4280196,23.222716 L13.4343666,21.0538272 Z" id="Shape"></path>
                    <path d="M19.7327007,17.6503704 L21.4897881,17.3387654 C21.2291213,16.6923457 21.806153,16.0261728 22.7775268,15.8533333 C23.7407315,15.682963 24.729186,16.0582716 25.0024777,16.6928395 C26.1617395,16.4824691 26.8375424,16.3614815 26.7684768,16.3955556 C25.2067038,12.5190123 18.3617864,10.3323457 12.5320584,11.3708642 C6.70233051,12.4088889 2.32966325,16.5945679 3.89143622,20.4740741 L5.65223684,20.1595062 C5.39231267,19.5135802 5.96934434,18.8498765 6.94071811,18.677037 C7.91209188,18.5012346 8.90945807,18.8849383 9.17012489,19.5338272 L10.9316682,19.2192593 C10.6710013,18.5733333 11.248033,17.9066667 12.2201494,17.7338272 C13.1915232,17.5609877 14.189632,17.9446914 14.4495562,18.5906173 L16.3366057,23.2720988 L17.0435995,25.028642 C17.1735616,25.3516049 16.887645,25.6834568 16.4019581,25.7698765 C15.9162712,25.8567901 15.4172168,25.6632099 15.2872547,25.3402469 L15.0488671,24.7575309 C15.0488671,24.7575309 13.7737533,24.1575309 13.2917797,25.0691358 C13.2531624,25.0953086 13.5257114,25.6548148 13.5257114,25.6548148 C13.9163403,26.6241975 15.4127609,27.2009877 16.8742774,26.9412346 C18.3313381,26.6814815 19.195029,25.6834568 18.8044001,24.7145679 L16.2103568,18.2790123 C15.9504326,17.6330864 16.5267217,16.9669136 17.4988381,16.7935802 C18.4702119,16.6202469 19.4683207,17.0039506 19.7327007,17.6503704 Z" id="Path"></path>
                    <polygon id="Path" points="18.5311084 0.15308642 37.4743822 0.640493827 42.4545294 5.71111111 23.4637266 4.98469136"></polygon>
                    <polygon id="Path" points="17.2389139 2.18666667 22.2183185 7.26024691 41.2091213 7.98716049 40.0253524 6.78123457 22.8436218 6.12098765 19.0435303 2.25580247"></polygon>
                    <polygon id="Path" points="15.9942484 4.46518519 20.973653 9.5362963 39.7297814 10.0320988 38.7806869 9.05728395 21.5937578 8.39950617 17.7988649 4.53481481"></polygon>
                </g>
            </g>
        </g>
    </g>
</svg>