<svg width="260" height="50" xmlns="http://www.w3.org/2000/svg">

 <!---->
 <!---->
 <g>
  <title>background</title>

  <rect fill="none" id="canvas_background" height="52" width="262" y="-1" x="-1"/>
 </g>
 <g>
  <title>Layer 1</title>

    background: #f66733;
  <rect stroke="null" id="svg_1" class="logo-background-square" height="51.234223" width="259.857596" y="-0.379398" x="0.166496" fill="#f66733"/>
  <g transform="matrix(2.4658424954638747,0,0,2.1789629757404327,77.99525102655942,129.10048101537762) " fill="#FFFDFB" id="970cd864-541b-e391-6855-f5fee4bea8c9">
   <path id="svg_2" d="m-8.764107,-48.51971c-0.16,-0.14 -0.35,-0.23 -0.56,-0.23c-0.23,0 -0.42,0.09 -0.56,0.23l0,-2.78l-0.81,0.84c-0.12,0.11 -0.27,0.17 -0.41,0.17c-0.14,0 -0.28,-0.06 -0.39,-0.16c-0.23,-0.22 -0.23,-0.57 -0.02,-0.8l1.75,-1.8c0.12,-0.11 0.26,-0.17 0.41,-0.17l0.03,0c0.31,0 0.56,0.25 0.56,0.56l0,4.14zm0,0.56l0,3.98c0,0.31 -0.25,0.56 -0.56,0.56c-0.31,0 -0.56,-0.25 -0.56,-0.56l0,-3.98l0,-0.04c0.03,-0.29 0.26,-0.52 0.56,-0.52c0.29,0 0.53,0.23 0.56,0.52l0,0.04zm1.26,-0.49c0,-0.23 0.04,-0.47 0.1,-0.68c0.28,-0.94 1.12,-1.63 2.08,-1.63l0.02,0c1.21,0 2.21,1.04 2.21,2.31c0,0.1 -0.03,0.19 -0.06,0.26c-0.1,0.18 -0.29,0.3 -0.5,0.3c-0.23,0 -0.42,-0.12 -0.51,-0.3c-0.04,-0.07 -0.05,-0.16 -0.05,-0.26c0,-0.32 -0.13,-0.63 -0.34,-0.85c-0.21,-0.21 -0.47,-0.34 -0.75,-0.34c-0.28,0 -0.55,0.13 -0.75,0.34c-0.22,0.22 -0.33,0.53 -0.33,0.85c0,0.1 -0.02,0.19 -0.06,0.26c-0.1,0.18 -0.28,0.3 -0.5,0.3c-0.23,0 -0.41,-0.12 -0.51,-0.3c-0.02,-0.07 -0.05,-0.16 -0.05,-0.26zm3.05,2.72c0,0.01 -0.01,0.03 -0.01,0.04l-2.4,-1.96c0.41,-0.04 0.72,-0.39 0.72,-0.8l0,-0.07l2.42,1.99c-0.41,0.03 -0.73,0.38 -0.73,0.8zm1.36,0c0,0.24 -0.04,0.48 -0.11,0.69c-0.28,0.93 -1.11,1.62 -2.09,1.62l-0.01,0c-1.21,0 -2.2,-1.04 -2.2,-2.31c0,-0.1 0.03,-0.18 0.05,-0.25c0.1,-0.18 0.28,-0.31 0.51,-0.31c0.22,0 0.4,0.13 0.5,0.31c0.04,0.07 0.06,0.15 0.06,0.25c0,0.32 0.11,0.63 0.33,0.85c0.2,0.21 0.47,0.34 0.75,0.34c0.28,0 0.54,-0.13 0.75,-0.34c0.21,-0.22 0.34,-0.53 0.34,-0.85c0,-0.1 0.01,-0.18 0.05,-0.25c0.09,-0.18 0.28,-0.31 0.51,-0.31c0.21,0 0.4,0.13 0.5,0.31c0.03,0.07 0.06,0.15 0.06,0.25zm3.44,-5.03c0,0.31 -0.25,0.56 -0.56,0.56l-0.92,0l0,3.9c-0.14,-0.14 -0.34,-0.23 -0.56,-0.23c-0.23,0 -0.42,0.09 -0.56,0.23l0,-6.36c0,-0.31 0.25,-0.56 0.56,-0.56c0.31,0 0.56,0.25 0.56,0.56l0,1.34l0.92,0c0.31,0 0.56,0.26 0.56,0.56zm-2.04,4.47c0.31,0 0.56,0.25 0.56,0.56c0,0.32 0.12,0.63 0.33,0.85c0.2,0.23 0.47,0.34 0.75,0.34c0.3,0 0.6,-0.14 0.81,-0.41c0.19,-0.23 0.54,-0.26 0.78,-0.07c0.25,0.2 0.28,0.55 0.09,0.79c-0.42,0.52 -1.03,0.81 -1.68,0.81c-1.21,0 -2.2,-1.04 -2.2,-2.31c0,-0.31 0.25,-0.56 0.56,-0.56zm6.27,-4.48c-1.2,0 -2.2,1.04 -2.2,2.31l0,2.16c0.14,-0.14 0.34,-0.23 0.56,-0.23c0.23,0 0.42,0.09 0.56,0.23l0,-2.16c0,-0.32 0.11,-0.63 0.34,-0.85c0.19,-0.23 0.46,-0.34 0.74,-0.34c0.28,0 0.55,0.11 0.76,0.34c0.21,0.22 0.33,0.53 0.33,0.85l0,2.16c0.14,-0.14 0.34,-0.23 0.56,-0.23c0.21,0 0.41,0.09 0.56,0.23l0,-2.16c0,-1.27 -0.99,-2.31 -2.21,-2.31zm1.65,4.48c-0.22,0 -0.42,0.13 -0.5,0.31c-0.04,0.07 -0.06,0.15 -0.06,0.25c0,0.32 -0.12,0.63 -0.33,0.85c-0.21,0.21 -0.48,0.34 -0.76,0.34c-0.28,0 -0.55,-0.13 -0.74,-0.34c-0.23,-0.22 -0.34,-0.53 -0.34,-0.85c0,-0.1 -0.01,-0.18 -0.05,-0.25c-0.1,-0.18 -0.28,-0.31 -0.51,-0.31c-0.22,0 -0.4,0.13 -0.5,0.31c-0.03,0.07 -0.06,0.15 -0.06,0.25c0,1.27 1,2.31 2.2,2.31l0.01,0c0.98,0 1.81,-0.69 2.09,-1.62c0.07,-0.21 0.11,-0.45 0.11,-0.69c0,-0.1 -0.03,-0.18 -0.05,-0.25c-0.1,-0.18 -0.3,-0.31 -0.51,-0.31zm1.4,-2.17c0,-0.24 0.04,-0.48 0.1,-0.69c0.28,-0.93 1.12,-1.61 2.09,-1.62l0.01,0c1.22,0 2.21,1.04 2.21,2.31c0,0.1 -0.03,0.18 -0.05,0.25c-0.1,0.18 -0.3,0.31 -0.51,0.31c-0.22,0 -0.42,-0.13 -0.5,-0.31c-0.04,-0.07 -0.06,-0.15 -0.06,-0.25c0,-0.32 -0.12,-0.62 -0.33,-0.85c-0.21,-0.21 -0.48,-0.34 -0.76,-0.34c-0.28,0 -0.55,0.13 -0.74,0.34c-0.23,0.23 -0.34,0.53 -0.34,0.85c0,0.1 -0.01,0.18 -0.05,0.25c-0.1,0.18 -0.28,0.31 -0.51,0.31c-0.22,0 -0.4,-0.13 -0.5,-0.31c-0.03,-0.07 -0.06,-0.15 -0.06,-0.25zm4.41,2.73c0,1.27 -0.99,2.31 -2.21,2.31c-0.39,0 -0.76,-0.11 -1.08,-0.29l0,2.64c0,0.31 -0.25,0.56 -0.56,0.56c-0.31,0 -0.56,-0.25 -0.56,-0.56l0,-6.83c0.14,0.15 0.34,0.24 0.56,0.24c0.23,0 0.42,-0.09 0.56,-0.24l0,2.17c0,0.32 0.11,0.63 0.34,0.85c0.19,0.23 0.46,0.34 0.74,0.34c0.28,0 0.55,-0.11 0.76,-0.34c0.21,-0.22 0.33,-0.53 0.33,-0.85l0,-2.17c0.14,0.15 0.34,0.24 0.56,0.24c0.21,0 0.41,-0.09 0.56,-0.24l0,2.17zm5.25,-3.81c-0.24,-0.52 -0.63,-0.94 -1.12,-1.19l0,-1.9c0,-0.31 0.25,-0.56 0.56,-0.56c0.31,0 0.56,0.25 0.56,0.56l0,3.09zm-4.41,1.09c0,-0.23 0.04,-0.46 0.1,-0.68c0.28,-0.94 1.12,-1.61 2.09,-1.63l0.01,0c1.22,0 2.21,1.04 2.21,2.31c0,0.1 -0.03,0.19 -0.05,0.26c-0.1,0.18 -0.3,0.3 -0.51,0.3c-0.22,0 -0.42,-0.12 -0.5,-0.3c-0.04,-0.07 -0.06,-0.16 -0.06,-0.26c0,-0.32 -0.12,-0.61 -0.33,-0.85c-0.21,-0.21 -0.48,-0.34 -0.76,-0.34c-0.28,0 -0.55,0.13 -0.74,0.34c-0.23,0.24 -0.34,0.53 -0.34,0.85c0,0.1 -0.01,0.19 -0.05,0.26c-0.1,0.18 -0.28,0.3 -0.51,0.3c-0.22,0 -0.4,-0.12 -0.5,-0.3c-0.03,-0.07 -0.06,-0.16 -0.06,-0.26zm3.85,0.8c0.21,0 0.41,-0.08 0.56,-0.22l0,2.14c0,1.27 -0.99,2.31 -2.21,2.31c-1.2,0 -2.2,-1.04 -2.2,-2.31l0,-2.14c0.14,0.14 0.34,0.22 0.56,0.22c0.23,0 0.42,-0.08 0.56,-0.22l0,2.14c0,0.32 0.11,0.63 0.34,0.85c0.19,0.21 0.46,0.34 0.74,0.34c0.28,0 0.55,-0.13 0.76,-0.34c0.21,-0.22 0.33,-0.53 0.33,-0.85l0,-2.14c0.14,0.14 0.34,0.22 0.56,0.22zm5.28,-2.29c-0.42,-0.52 -1.02,-0.82 -1.68,-0.82c-0.42,0 -0.83,0.13 -1.16,0.35c-0.1,-0.15 -0.28,-0.26 -0.48,-0.26c-0.31,0 -0.56,0.25 -0.56,0.56l0,1.66c0,0.31 0.25,0.56 0.56,0.56c0.31,0 0.56,-0.25 0.56,-0.56c0,-0.32 0.13,-0.63 0.34,-0.85c0.19,-0.22 0.46,-0.34 0.74,-0.34c0.31,0 0.6,0.14 0.81,0.41c0.2,0.24 0.55,0.27 0.79,0.07c0.25,-0.2 0.28,-0.55 0.08,-0.78zm-3.32,2.29c-0.22,0 -0.42,-0.08 -0.56,-0.24l0,3.91c0,0.31 0.25,0.56 0.56,0.56c0.31,0 0.56,-0.25 0.56,-0.56l0,-3.91c-0.14,0.16 -0.33,0.24 -0.56,0.24zm6.06,-3.12c-1.2,0 -2.19,1.04 -2.19,2.31l0,2.16c0.14,-0.14 0.33,-0.23 0.56,-0.23c0.22,0 0.42,0.09 0.56,0.23l0,-2.16c0,-0.32 0.11,-0.63 0.33,-0.85c0.2,-0.23 0.46,-0.34 0.74,-0.34c0.28,0 0.55,0.11 0.76,0.34c0.21,0.22 0.34,0.53 0.34,0.85l0,2.16c0.14,-0.14 0.33,-0.23 0.56,-0.23c0.21,0 0.4,0.09 0.56,0.23l0,-2.16c0,-1.27 -1,-2.31 -2.22,-2.31zm1.66,4.48c-0.23,0 -0.42,0.13 -0.51,0.31c-0.04,0.07 -0.05,0.15 -0.05,0.25c0,0.32 -0.13,0.63 -0.34,0.85c-0.21,0.21 -0.48,0.34 -0.76,0.34c-0.28,0 -0.54,-0.13 -0.74,-0.34c-0.22,-0.22 -0.33,-0.53 -0.33,-0.85c0,-0.1 -0.02,-0.18 -0.06,-0.25c-0.1,-0.18 -0.28,-0.31 -0.5,-0.31c-0.23,0 -0.41,0.13 -0.51,0.31c-0.03,0.07 -0.05,0.15 -0.05,0.25c0,1.27 0.99,2.31 2.19,2.31l0.02,0c0.98,0 1.8,-0.69 2.08,-1.62c0.07,-0.21 0.12,-0.45 0.12,-0.69c0,-0.1 -0.03,-0.18 -0.06,-0.25c-0.1,-0.18 -0.29,-0.31 -0.5,-0.31zm1.4,-2.17c0,-0.24 0.04,-0.48 0.09,-0.69c0.28,-0.93 1.12,-1.61 2.09,-1.62l0.01,0c1.22,0 2.22,1.04 2.22,2.31c0,0.1 -0.03,0.18 -0.06,0.25c-0.1,0.18 -0.29,0.31 -0.5,0.31c-0.23,0 -0.42,-0.13 -0.51,-0.31c-0.04,-0.07 -0.05,-0.15 -0.05,-0.25c0,-0.32 -0.13,-0.62 -0.34,-0.85c-0.21,-0.21 -0.48,-0.34 -0.76,-0.34c-0.28,0 -0.54,0.13 -0.74,0.34c-0.22,0.23 -0.33,0.53 -0.33,0.85c0,0.1 -0.02,0.18 -0.06,0.25c-0.1,0.18 -0.28,0.31 -0.5,0.31c-0.23,0 -0.41,-0.13 -0.51,-0.31c-0.03,-0.07 -0.05,-0.15 -0.05,-0.25zm4.41,2.73c0,1.27 -1,2.31 -2.22,2.31c-0.39,0 -0.75,-0.11 -1.07,-0.29l0,2.64c0,0.31 -0.26,0.56 -0.56,0.56c-0.31,0 -0.56,-0.25 -0.56,-0.56l0,-6.83c0.14,0.15 0.33,0.24 0.56,0.24c0.22,0 0.42,-0.09 0.56,-0.24l0,2.17c0,0.32 0.11,0.63 0.33,0.85c0.2,0.23 0.46,0.34 0.74,0.34c0.28,0 0.55,-0.11 0.76,-0.34c0.21,-0.22 0.34,-0.53 0.34,-0.85l0,-2.17c0.14,0.15 0.33,0.24 0.56,0.24c0.21,0 0.4,-0.09 0.56,-0.24l0,2.17zm0.84,-2.72c0,-0.23 0.04,-0.47 0.09,-0.68c0.28,-0.94 1.12,-1.63 2.09,-1.63l0.01,0c1.22,0 2.22,1.04 2.22,2.31c0,0.1 -0.03,0.19 -0.06,0.26c-0.1,0.18 -0.29,0.3 -0.5,0.3c-0.23,0 -0.42,-0.12 -0.51,-0.3c-0.04,-0.07 -0.05,-0.16 -0.05,-0.26c0,-0.32 -0.13,-0.63 -0.34,-0.85c-0.21,-0.21 -0.48,-0.34 -0.76,-0.34c-0.28,0 -0.54,0.13 -0.74,0.34c-0.22,0.22 -0.33,0.53 -0.33,0.85c0,0.1 -0.02,0.19 -0.06,0.26c-0.1,0.18 -0.28,0.3 -0.5,0.3c-0.23,0 -0.41,-0.12 -0.51,-0.3c-0.03,-0.07 -0.05,-0.16 -0.05,-0.26zm3.05,2.72c0,0.01 -0.02,0.03 -0.02,0.04l-2.39,-1.96c0.41,-0.04 0.71,-0.39 0.71,-0.8l0,-0.07l2.43,1.99c-0.41,0.03 -0.73,0.38 -0.73,0.8zm1.36,0c0,0.24 -0.05,0.48 -0.12,0.69c-0.28,0.93 -1.1,1.62 -2.08,1.62l-0.02,0c-1.2,0 -2.19,-1.04 -2.19,-2.31c0,-0.1 0.02,-0.18 0.05,-0.25c0.1,-0.18 0.28,-0.31 0.51,-0.31c0.22,0 0.4,0.13 0.5,0.31c0.04,0.07 0.06,0.15 0.06,0.25c0,0.32 0.11,0.63 0.33,0.85c0.2,0.21 0.46,0.34 0.74,0.34c0.28,0 0.55,-0.13 0.76,-0.34c0.21,-0.22 0.34,-0.53 0.34,-0.85c0,-0.1 0.01,-0.18 0.05,-0.25c0.09,-0.18 0.28,-0.31 0.51,-0.31c0.21,0 0.4,0.13 0.5,0.31c0.03,0.07 0.06,0.15 0.06,0.25zm1.96,-5c-0.49,0.25 -0.89,0.67 -1.12,1.19l0,-3.09c0,-0.31 0.25,-0.56 0.56,-0.56c0.3,0 0.56,0.25 0.56,0.56l0,1.9zm3.29,2.33c-0.03,0.29 -0.27,0.51 -0.56,0.51c-0.31,0 -0.55,-0.22 -0.56,-0.51l0,-0.05c0,-0.32 -0.13,-0.63 -0.34,-0.85c-0.21,-0.21 -0.48,-0.34 -0.76,-0.34c-0.28,0 -0.54,0.13 -0.74,0.34c-0.22,0.22 -0.33,0.53 -0.33,0.85c0,0.31 -0.26,0.56 -0.56,0.56c-0.31,0 -0.56,-0.25 -0.56,-0.56c0,-0.85 0.44,-1.61 1.12,-2.01c0.32,-0.18 0.68,-0.3 1.07,-0.3c1.22,0 2.22,1.04 2.22,2.31l0,0.05zm-3.85,0.75c0.22,0 0.42,-0.08 0.56,-0.22l0,3.89c0,0.31 -0.26,0.56 -0.56,0.56c-0.31,0 -0.56,-0.25 -0.56,-0.56l0,-3.89c0.14,0.14 0.33,0.22 0.56,0.22zm3.85,3.67c0,0.31 -0.26,0.56 -0.56,0.56c-0.31,0 -0.56,-0.25 -0.56,-0.56l0,-3.89c0.14,0.14 0.33,0.22 0.56,0.22c0.21,0 0.4,-0.08 0.56,-0.22l0,3.89zm1.96,-8.12c0,0.32 -0.26,0.57 -0.56,0.57c-0.31,0 -0.56,-0.25 -0.56,-0.57c0,-0.31 0.25,-0.56 0.56,-0.56c0.3,0 0.56,0.25 0.56,0.56zm0,3.67c-0.14,-0.14 -0.34,-0.23 -0.56,-0.23c-0.21,0 -0.42,0.09 -0.56,0.23l0,-1.78c0,-0.31 0.25,-0.56 0.56,-0.56c0.3,0 0.56,0.25 0.56,0.56l0,1.78zm0,0.57l0,3.88c0,0.31 -0.26,0.56 -0.56,0.56c-0.31,0 -0.56,-0.25 -0.56,-0.56l0,-3.88l0,-0.05c0.02,-0.28 0.26,-0.51 0.56,-0.51c0.29,0 0.53,0.23 0.56,0.51l0,0.05zm0.84,-0.6c0,-0.24 0.04,-0.48 0.09,-0.69c0.28,-0.93 1.12,-1.61 2.09,-1.62l0.01,0c1.22,0 2.22,1.04 2.22,2.31c0,0.1 -0.03,0.18 -0.06,0.25c-0.1,0.18 -0.29,0.31 -0.5,0.31c-0.23,0 -0.42,-0.13 -0.51,-0.31c-0.04,-0.07 -0.05,-0.15 -0.05,-0.25c0,-0.32 -0.13,-0.62 -0.34,-0.85c-0.21,-0.21 -0.48,-0.34 -0.76,-0.34c-0.28,0 -0.54,0.13 -0.74,0.34c-0.22,0.23 -0.33,0.53 -0.33,0.85c0,0.1 -0.02,0.18 -0.06,0.25c-0.1,0.18 -0.28,0.31 -0.5,0.31c-0.23,0 -0.41,-0.13 -0.51,-0.31c-0.03,-0.07 -0.05,-0.15 -0.05,-0.25zm4.41,2.73c0,1.27 -1,2.31 -2.22,2.31c-0.39,0 -0.75,-0.11 -1.07,-0.29l0,2.64c0,0.31 -0.26,0.56 -0.56,0.56c-0.31,0 -0.56,-0.25 -0.56,-0.56l0,-6.83c0.14,0.15 0.33,0.24 0.56,0.24c0.22,0 0.42,-0.09 0.56,-0.24l0,2.17c0,0.32 0.11,0.63 0.33,0.85c0.2,0.23 0.46,0.34 0.74,0.34c0.28,0 0.55,-0.11 0.76,-0.34c0.21,-0.22 0.34,-0.53 0.34,-0.85l0,-2.17c0.14,0.15 0.33,0.24 0.56,0.24c0.21,0 0.4,-0.09 0.56,-0.24l0,2.17zm0.84,-2.73c0,-0.24 0.04,-0.48 0.09,-0.69c0.28,-0.93 1.12,-1.61 2.09,-1.62l0.01,0c1.22,0 2.22,1.04 2.22,2.31c0,0.1 -0.03,0.18 -0.06,0.25c-0.1,0.18 -0.29,0.31 -0.5,0.31c-0.23,0 -0.42,-0.13 -0.51,-0.31c-0.04,-0.07 -0.05,-0.15 -0.05,-0.25c0,-0.32 -0.13,-0.62 -0.34,-0.85c-0.21,-0.21 -0.48,-0.34 -0.76,-0.34c-0.28,0 -0.54,0.13 -0.74,0.34c-0.22,0.23 -0.33,0.53 -0.33,0.85c0,0.1 -0.02,0.18 -0.06,0.25c-0.1,0.18 -0.28,0.31 -0.5,0.31c-0.23,0 -0.41,-0.13 -0.51,-0.31c-0.03,-0.07 -0.05,-0.15 -0.05,-0.25zm4.41,2.73c0,1.27 -1,2.31 -2.22,2.31c-0.39,0 -0.75,-0.11 -1.07,-0.29l0,2.64c0,0.31 -0.26,0.56 -0.56,0.56c-0.31,0 -0.56,-0.25 -0.56,-0.56l0,-6.83c0.14,0.15 0.33,0.24 0.56,0.24c0.22,0 0.42,-0.09 0.56,-0.24l0,2.17c0,0.32 0.11,0.63 0.33,0.85c0.2,0.23 0.46,0.34 0.74,0.34c0.28,0 0.55,-0.11 0.76,-0.34c0.21,-0.22 0.34,-0.53 0.34,-0.85l0,-2.17c0.14,0.15 0.33,0.24 0.56,0.24c0.21,0 0.4,-0.09 0.56,-0.24l0,2.17zm1.96,-6.37c0,0.32 -0.26,0.57 -0.56,0.57c-0.31,0 -0.56,-0.25 -0.56,-0.57c0,-0.31 0.25,-0.56 0.56,-0.56c0.3,0 0.56,0.25 0.56,0.56zm0,3.67c-0.14,-0.14 -0.34,-0.23 -0.56,-0.23c-0.21,0 -0.42,0.09 -0.56,0.23l0,-1.78c0,-0.31 0.25,-0.56 0.56,-0.56c0.3,0 0.56,0.25 0.56,0.56l0,1.78zm0,0.57l0,3.88c0,0.31 -0.26,0.56 -0.56,0.56c-0.31,0 -0.56,-0.25 -0.56,-0.56l0,-3.88l0,-0.05c0.02,-0.28 0.26,-0.51 0.56,-0.51c0.29,0 0.53,0.23 0.56,0.51l0,0.05zm5.25,-0.54c-0.03,0.29 -0.27,0.51 -0.56,0.51c-0.31,0 -0.55,-0.22 -0.56,-0.51l0,-0.05c0,-0.32 -0.13,-0.63 -0.34,-0.85c-0.21,-0.21 -0.48,-0.34 -0.76,-0.34c-0.28,0 -0.54,0.13 -0.74,0.34c-0.22,0.22 -0.33,0.53 -0.33,0.85c0,0.31 -0.26,0.56 -0.56,0.56c-0.31,0 -0.56,-0.25 -0.56,-0.56c0,-1.27 0.99,-2.31 2.19,-2.31c1.22,0 2.22,1.04 2.22,2.31l0,0.05zm-3.85,0.75c0.22,0 0.42,-0.08 0.56,-0.22l0,3.89c0,0.31 -0.26,0.56 -0.56,0.56c-0.31,0 -0.56,-0.25 -0.56,-0.56l0,-3.89c0.14,0.14 0.33,0.22 0.56,0.22zm3.85,3.67c0,0.31 -0.26,0.56 -0.56,0.56c-0.31,0 -0.56,-0.25 -0.56,-0.56l0,-3.89c0.14,0.14 0.33,0.22 0.56,0.22c0.21,0 0.4,-0.08 0.56,-0.22l0,3.89zm5.25,-2.32c-0.16,-0.14 -0.35,-0.23 -0.56,-0.23c-0.23,0 -0.42,0.09 -0.56,0.23l0,-2.16c0,-0.32 -0.13,-0.63 -0.34,-0.85c-0.21,-0.21 -0.48,-0.34 -0.76,-0.34c-0.28,0 -0.54,0.13 -0.74,0.34c-0.22,0.22 -0.33,0.53 -0.33,0.85l0,2.16c-0.14,-0.14 -0.34,-0.23 -0.56,-0.23c-0.23,0 -0.42,0.09 -0.56,0.23l0,-2.16c0,-1.27 0.99,-2.31 2.19,-2.31c1.22,0 2.22,1.04 2.22,2.31l0,2.16zm-2.22,2.88c-1.2,0 -2.19,-1.04 -2.19,-2.31c0,-0.31 0.25,-0.56 0.56,-0.56c0.3,0 0.56,0.25 0.56,0.56c0,0.32 0.11,0.63 0.33,0.85c0.2,0.23 0.46,0.34 0.74,0.34c0.28,0 0.55,-0.11 0.76,-0.34c0.21,-0.22 0.34,-0.53 0.34,-0.85c0,-0.31 0.25,-0.56 0.56,-0.56c0.3,0 0.56,0.25 0.56,0.56c0,1.27 -1,2.31 -2.22,2.31zm2.22,0.62c0,1.27 -1,2.31 -2.22,2.31c-0.58,0 -1.13,-0.2 -1.52,-0.55c-0.44,-0.38 -0.67,-0.92 -0.67,-1.54c0,-0.32 0.25,-0.56 0.56,-0.56c0.3,0 0.56,0.24 0.56,0.56c0,0.29 0.09,0.53 0.29,0.7c0.2,0.17 0.48,0.27 0.78,0.27c0.28,0 0.55,-0.13 0.76,-0.34c0.21,-0.24 0.34,-0.53 0.34,-0.85l0,-0.65c0.49,-0.25 0.88,-0.67 1.12,-1.19l0,1.84z"/>
  </g>

  <g transform="matrix(0.7519978122096731,0,0,0.619743967515757,44.319898482868105,440.2454285104676) " fill="#FFFDFB" id="b3654a45-ab8b-7fa6-b227-80b21a77274d">
   <svg id="svg_3" viewBox="0 0 100 100" y="-699.425272" x="-150.675696" xmlns:xlink="http://www.w3.org/1999/xlink">
    <polygon id="svg_10" points="21.1,49.556 45.633,64.275 45.633,98.62 21.1,83.9 " clip-rule="evenodd" fill-rule="evenodd"/>
    <polygon id="svg_9" points="79.978,52.009 48.086,64.275 48.086,98.62 79.978,86.354 " clip-rule="evenodd" fill-rule="evenodd"/>
    <path id="svg_8" d="m52.992,42.196l26.985,14.719l0,-4.906l-26.985,-14.719l-6.811,2.617l1.297,4.41l5.514,-2.121zm-13.902,0.438l-17.99,6.922l0,4.906l19.328,-7.436l-1.338,-4.392z" clip-rule="evenodd" fill-rule="evenodd"/>
    <path id="svg_7" d="m47.571,35.742l2.366,-0.631c-0.351,-1.309 0.426,-2.658 1.734,-3.008c1.297,-0.345 2.628,0.415 2.996,1.7c1.561,-0.426 2.471,-0.671 2.378,-0.602c-2.103,-7.85 -11.32,-12.278 -19.17,-10.175c-7.85,2.102 -13.738,10.578 -11.635,18.434l2.371,-0.637c-0.35,-1.308 0.427,-2.652 1.735,-3.002c1.308,-0.356 2.651,0.421 3.002,1.735l2.372,-0.637c-0.351,-1.308 0.426,-2.658 1.735,-3.008c1.308,-0.35 2.652,0.427 3.002,1.735l2.541,9.48l0.952,3.557c0.175,0.654 -0.21,1.326 -0.864,1.501c-0.654,0.176 -1.326,-0.216 -1.501,-0.87l-0.321,-1.18c0,0 -1.717,-1.215 -2.366,0.631c-0.052,0.053 0.315,1.186 0.315,1.186c0.526,1.963 2.541,3.131 4.509,2.605c1.962,-0.526 3.125,-2.547 2.599,-4.509l-3.493,-13.032c-0.35,-1.308 0.426,-2.657 1.735,-3.008c1.308,-0.351 2.652,0.426 3.008,1.735z" clip-rule="evenodd" fill-rule="evenodd"/>
    <polygon id="svg_6" points="45.953,0.31 71.461,1.297 78.167,11.565 52.595,10.094 " clip-rule="evenodd" fill-rule="evenodd"/>
    <polygon id="svg_5" points="44.213,4.428 50.918,14.702 76.49,16.174 74.896,13.732 51.76,12.395   46.643,4.568 " clip-rule="evenodd" fill-rule="evenodd"/>
    <polygon id="svg_4" points="42.537,9.042 49.242,19.311 74.498,20.315 73.22,18.341 50.077,17.009   44.967,9.183 " clip-rule="evenodd" fill-rule="evenodd"/>

   </svg>
  </g>
 </g>

</svg>
