<?xml version="1.0" encoding="UTF-8"?>
<svg width="32px" height="32px" viewBox="0 0 32 32" version="1.1" xmlns="http://www.w3.org/2000/svg" xmlns:xlink="http://www.w3.org/1999/xlink">
    <!-- Generator: Sketch 53 (72520) - https://sketchapp.com -->
    <title>Slice 1</title>
    <desc>Created with Sketch.</desc>
    <g id="Page-1" stroke="none" stroke-width="1" fill="none" fill-rule="evenodd">
        <g id="whatsapp" fill-rule="nonzero">
            <rect id="Rectangle" fill="#1BD741" x="0" y="0" width="31.9811228" height="31.9811228"></rect>
            <g id="Group" transform="translate(4.771930, 4.771930)" fill="#FFFFFF">
                <path d="M0.0346666667,22.4147368 L1.60119298,16.8509474 C0.593824561,15.1395789 0.0634385965,13.1924211 0.0634385965,11.1921404 C0.0634385965,5.03319298 5.07410526,0.0225263158 11.2330526,0.0225263158 C17.392,0.0225263158 22.4025965,5.03319298 22.4025965,11.1921404 C22.4025965,17.3510877 17.392,22.3617544 11.2330526,22.3617544 C9.31396491,22.3617544 7.43480702,21.8705263 5.77242105,20.9377544 L0.0346666667,22.4147368 Z M6.06575439,18.9056842 L6.40764912,19.1144561 C7.85705263,19.9992982 9.52568421,20.4670175 11.2330526,20.4670175 C16.3472281,20.4670175 20.5078596,16.3063158 20.5078596,11.1921404 C20.5078596,6.07796491 16.3472281,1.91726316 11.2330526,1.91726316 C6.11887719,1.91726316 1.95817544,6.07796491 1.95817544,11.1921404 C1.95817544,12.9741053 2.46463158,14.7045614 3.42266667,16.1964211 L3.65291228,16.5549474 L2.75080702,19.7590175 L6.06575439,18.9056842 Z" id="Shape"></path>
                <path d="M8.09536842,5.99347368 L7.37059649,5.95396491 C7.14294737,5.94154386 6.91964912,6.01761404 6.74757895,6.16708772 C6.39621053,6.47221053 5.83438596,7.06210526 5.66182456,7.83080702 C5.40449123,8.97698246 5.80217544,10.3804912 6.8314386,11.784 C7.86070175,13.1875088 9.77880702,15.4331228 13.1705965,16.3922105 C14.2635789,16.7012632 15.1233684,16.4929123 15.7867368,16.0685614 C16.3121404,15.7324912 16.6743158,15.1930526 16.8048421,14.5832281 L16.9205614,14.0427368 C16.9573333,13.8709474 16.8701053,13.6966316 16.7105263,13.6230877 L14.2610526,12.4940351 C14.1020351,12.4207719 13.9134737,12.4670877 13.8065263,12.6056842 L12.8449123,13.8522807 C12.7722807,13.9464561 12.6479298,13.9837895 12.5356491,13.9443509 C11.8771228,13.7129123 9.67122807,12.7890526 8.46084211,10.4575439 C8.40835088,10.3564211 8.42140351,10.2336842 8.49585965,10.1474386 L9.41487719,9.0842807 C9.50877193,8.9757193 9.53249123,8.82308772 9.47607018,8.69115789 L8.42021053,6.22091228 C8.364,6.08940351 8.23803509,6.00126316 8.09536842,5.99347368 Z" id="Path"></path>
            </g>
        </g>
    </g>
</svg>